<?xml version="1.0" encoding="utf-8"?>
<!-- Generator: Adobe Illustrator 24.3.0, SVG Export Plug-In . SVG Version: 6.00 Build 0)  -->
<svg version="1.1" id="Vrstva_1" xmlns="http://www.w3.org/2000/svg" xmlns:xlink="http://www.w3.org/1999/xlink" x="0px" y="0px"
	 viewBox="0 0 246.83 246.81" style="enable-background:new 0 0 246.83 246.81;" xml:space="preserve">
<style type="text/css">
	.st0{fill-rule:evenodd;clip-rule:evenodd;fill:#FDC532;}
	.st1{fill-rule:evenodd;clip-rule:evenodd;fill:#004573;}
	.st2{fill:#004573;}
	.st3{fill:none;stroke:#004573;stroke-width:2;stroke-miterlimit:22.9256;}
</style>
<polygon class="st0" points="6.84,6.82 123.43,6.82 123.43,123.42 6.84,123.42 6.84,6.82 "/>
<polygon class="st1" points="6.84,123.42 123.43,123.42 123.43,240.02 6.84,240.02 6.84,123.42 "/>
<polygon class="st1" points="123.43,6.82 240.03,6.82 240.03,123.42 123.43,123.42 123.43,6.82 "/>
<polygon class="st0" points="123.43,123.42 240.03,123.42 240.03,240.02 123.43,240.02 123.43,123.42 "/>
<path class="st2" d="M71.58,58.92c5,0.07,9.76,0.11,14.27,0.11c7.72,0,13.79-0.04,18.15-0.11c-0.49,5-0.97,12.05-1.45,21.21
	c-0.5,9.14-0.8,16.04-0.91,20.71c-4.18,0.76-7.65,1.32-10.41,1.66c-2.74,0.35-6.06,0.65-9.92,0.93c-3.86,0.28-7.29,0.41-10.32,0.41
	c-4.96,0-9.83-0.39-14.61-1.19c-4.78-0.8-9.05-2.11-12.82-3.88c-3.77-1.79-6.9-4.22-9.42-7.28c-2.52-3.06-4.46-6.68-5.82-10.88
	c-1.36-4.2-2.05-8.52-2.05-13c0-7.41,1.85-14.27,5.52-20.61c3.67-6.32,8.97-11.34,15.87-15.05c6.9-3.69,15.84-5.54,26.77-5.54
	c7.98,0,16.81,0.97,26.51,2.89c0,5.32,0.24,11.23,0.71,17.76c-2.63-0.88-4.74-1.53-6.36-2c-1.62-0.45-3.53-0.88-5.69-1.25
	c-2.16-0.39-4.23-0.67-6.17-0.84c-1.96-0.19-3.69-0.28-5.22-0.28c-4.01,0-7.8,0.58-11.38,1.72c-3.56,1.16-6.64,2.93-9.2,5.3
	c-2.57,2.39-4.5,5.24-5.76,8.56c-1.29,3.32-1.92,6.81-1.92,10.48c0,3.77,0.73,7.11,2.18,10.04c1.46,2.93,3.77,5.17,6.94,6.7
	c3.17,1.53,6.72,2.29,10.61,2.29c3.25,0,6.79-0.47,10.65-1.42l0.62-11.86c-2.37-0.11-3.77-0.17-4.22-0.17l-5.8,0.06l0.39-6.72
	c0.02-0.73,0.07-1.79,0.15-3.15C71.54,63.15,71.58,61.29,71.58,58.92L71.58,58.92z"/>
<polygon class="st0" points="128.97,110.59 128.97,42.93 167.24,14.61 167.24,82.27 128.97,110.59 "/>
<polygon class="st0" points="174.57,23.27 185.15,18.55 184.34,89.35 143.62,108.23 174.25,85.82 174.57,23.27 "/>
<polygon class="st0" points="150.24,112.17 202.34,101.55 203.15,31.17 192.16,33.14 191.35,93.29 150.24,112.17 "/>
<polygon class="st0" points="157.57,117.67 208.85,106.66 209.66,48.47 219.02,48.47 219.02,117.28 157.57,117.67 "/>
<path class="st0" d="M63.36,128.85l54.35,0.2l-0.21,39.82c-14.44,2.09-24.42,4.99-42.25,11.32
	C70.29,165.43,63.85,147.85,63.36,128.85L63.36,128.85z"/>
<path class="st0" d="M78.28,186.33c12.41-5.01,25.98-9,39.28-10.61l-0.21,58.52c-5.1,0.1-12-0.81-16.67-1.92
	C88.58,215.14,83.49,200.99,78.28,186.33L78.28,186.33z"/>
<path class="st0" d="M12.31,128.85h44.5c0.69,16.59,5.16,35.82,11.88,53.83c-13.89,6.57-10.4,4.62-30.65,16.37
	C26.34,187.24,14.25,164.52,12.31,128.85L12.31,128.85z"/>
<path class="st0" d="M43.09,204.8c8.03-5.58,18.4-11.24,28.45-15.67c4.39,11.43,11.96,28.19,20.17,41.48
	C74.31,225.38,56.68,219.75,43.09,204.8L43.09,204.8z"/>
<path class="st2" d="M175.37,188.34c0,9.1-0.75,16.15-2.24,21.15c-2.7,8.86-7.03,15.8-13,20.82c-0.69,0.62-1.27,0.93-1.7,0.93
	c-0.41,0-0.8-0.24-1.21-0.71c-1.27-1.49-3.25-3.73-5.95-6.72c-1.57-1.32-3.88-3.36-6.94-6.14c-0.39-0.43-0.6-0.8-0.6-1.08
	c0-0.34,0.21-0.67,0.6-1.04c2.7-2.37,4.4-3.99,5.13-4.87c1.44-1.7,2.52-3.86,3.28-6.44c1.03-3.54,1.53-9.35,1.53-17.44
	c0-18.73-0.65-33.24-1.96-43.56c-0.07-0.35-0.11-0.63-0.11-0.82c0-0.65,0.58-0.99,1.75-0.99c1.16,0,2.87,0.06,5.17,0.17
	c2.28,0.11,3.99,0.17,5.15,0.17c1.1,0,2.72-0.06,4.87-0.17c2.14-0.11,3.77-0.17,4.87-0.17c1.04,0,1.59,0.48,1.59,1.44
	c0,5.02-0.04,12.59-0.11,22.7C175.41,175.69,175.37,183.28,175.37,188.34L175.37,188.34z"/>
<path class="st2" d="M202.79,154.48h-9.4c-0.65,0-1.12-0.28-1.36-0.88c-1.14-2.76-3.02-5.73-5.63-8.9c-0.07-0.07-2.41-2.72-7-7.93
	c-0.19-0.19-0.37-0.5-0.54-0.99c0.06-0.13,1.4-0.76,3.97-1.88c2.59-1.1,4.07-1.66,4.44-1.66c1.08,0,2.93,1.34,5.52,4.05
	c2.41,2.48,3.92,4.37,4.53,5.67c0.07,0.15,0.22,0.34,0.43,0.56c0.19-0.07,0.34-0.22,0.45-0.45c0.9-1.68,2.44-3.64,4.64-5.89
	c2.57-2.67,4.55-3.99,5.89-3.99c0.45,0,3.26,1.06,8.47,3.17c0.37,0.15,0.54,0.32,0.54,0.48c-2.61,2.82-5.54,6.01-8.79,9.57
	c-2.29,2.72-3.9,5.47-4.81,8.19C203.93,154.2,203.48,154.48,202.79,154.48L202.79,154.48z"/>
<path class="st2" d="M219.73,199.91c0,7.41-3.12,13.75-9.35,19.03c-5.47,4.66-12.12,7.63-19.96,8.9c-0.28,0.04-0.52,0.06-0.71,0.06
	c-0.84,0-2.69-2.56-5.58-7.67c-2.87-5.13-4.31-8.25-4.31-9.38c0-0.39,0.28-0.65,0.82-0.76c5.28-1.19,8.79-2.22,10.48-3.06
	c3.79-1.88,5.69-4.7,5.69-8.41c0-2.37-1.23-5.02-3.71-7.93c-4.31-4.94-6.64-7.7-7-8.25c-2.52-3.79-3.77-7.98-3.77-12.57
	c0-6.66,3.08-12.2,9.23-16.62c5.02-3.64,11.19-6.01,18.52-7.09c0.39-0.04,0.71-0.06,0.93-0.06c0.54,0,0.97,0.43,1.31,1.31
	c0.95,2.65,3.15,7.46,6.62,14.42c0.09,0.22,0.15,0.41,0.15,0.56c0,0.62-0.32,0.91-0.97,0.91c-0.3,0-0.78-0.04-1.47-0.15
	c-0.71-0.11-1.23-0.17-1.59-0.17c-2.63,0-4.92,0.6-6.9,1.81c-2.37,1.38-3.54,3.3-3.54,5.78c0,2.22,1.31,4.96,3.94,8.21
	c4.63,5.82,7.05,8.88,7.27,9.18C218.42,191.96,219.73,195.94,219.73,199.91L219.73,199.91z"/>
<rect x="1.07" y="1.05" class="st3" width="244.73" height="244.73"/>
</svg>
